<?xml version="1.0" encoding="utf-8"?>
<!-- Generator: Adobe Illustrator 24.0.1, SVG Export Plug-In . SVG Version: 6.00 Build 0)  -->
<svg version="1.1" id="a9e06111-6f74-41cd-a7ac-d054423684ef"
	 xmlns="http://www.w3.org/2000/svg" xmlns:xlink="http://www.w3.org/1999/xlink" x="0px" y="0px" viewBox="0 0 571 492.8"
	 style="enable-background:new 0 0 571 492.8;" xml:space="preserve">
<style type="text/css">
	.st0{fill:#E6E6E6;}
	.st1{fill:#6ABFBD;}
	.st2{fill:#FFFFFF;}
	.st3{fill:#3F3D56;}
	.st4{fill:#A0616A;}
	.st5{fill:#2F2E41;}
	.st6{opacity:0.2;enable-background:new    ;}
</style>
<g>
	<path class="st0" d="M478.9,260.7H186.8c-3,0-5.4-2.4-5.4-5.4V5.4c0-3,2.4-5.4,5.4-5.4H479c3,0,5.4,2.4,5.4,5.4v249.9
		C484.3,258.3,482,260.7,478.9,260.7z M186.8,2.2c-1.8,0-3.2,1.5-3.2,3.2v249.9c0,1.8,1.5,3.2,3.2,3.2H479c1.8,0,3.2-1.5,3.2-3.2
		V5.4c0-1.8-1.5-3.2-3.2-3.2L186.8,2.2z"/>
	<circle class="st0" cx="232.1" cy="216.3" r="22.1"/>
	<path class="st0" d="M283.1,201.5c-2,0-3.7,1.6-3.7,3.7c0,2,1.6,3.7,3.7,3.7h173.2c2,0,3.7-1.6,3.7-3.7c0-2-1.6-3.7-3.7-3.7H283.1z
		"/>
	<path class="st0" d="M283.1,223.6c-2,0-3.7,1.6-3.7,3.7s1.6,3.7,3.7,3.7l0,0h74.5c2,0,3.7-1.6,3.7-3.7s-1.6-3.7-3.7-3.7H283.1z"/>
	<path class="st1" d="M548.4,173.5H256.2c-3,0-5.4-2.4-5.4-5.4V39.9c0-3,2.4-5.4,5.4-5.4h292.2c3,0,5.4,2.4,5.4,5.4v128.2
		C553.8,171.1,551.4,173.5,548.4,173.5z"/>
	<path class="st2" d="M315.7,79.2c-2,0-3.7,1.6-3.7,3.7c0,2,1.6,3.7,3.7,3.7h173.2c2,0,3.7-1.6,3.7-3.7c0-2-1.6-3.7-3.7-3.7H315.7z"
		/>
	<path class="st2" d="M315.7,100.5c-2,0-3.7,1.6-3.7,3.7c0,2,1.6,3.7,3.7,3.7h173.2c2,0,3.7-1.6,3.7-3.7c0-2-1.6-3.7-3.7-3.7H315.7z
		"/>
	<path class="st2" d="M315.7,121.5c-2,0-3.7,1.6-3.7,3.7s1.6,3.7,3.7,3.7h74.5c2,0,3.7-1.6,3.7-3.7s-1.6-3.7-3.7-3.7l0,0H315.7z"/>
	<circle class="st3" cx="548.9" cy="165.3" r="22.1"/>
	<polygon class="st2" points="547.1,175 540.1,166.1 544.2,162.9 547.4,167.1 558.6,155.4 562.4,158.9 	"/>
</g>
<g>
	<ellipse class="st0" cx="181.5" cy="483.4" rx="181.5" ry="9.4"/>
	<path class="st4" d="M265.9,290.7l-10.4-5.2l8.7-23.5l2.3-11.8c0.9-4.9,5.6-8.1,10.5-7.1c1.5,0.3,3,1,4.1,2l0,0
		c3.7,3.1,4.1,8.6,1.2,12.4l-8.5,10.6L265.9,290.7z"/>
	<path class="st0" d="M269.4,288.1l-2,6l-8.6,27.1c-2.4,7.6-10.6,11.8-18.2,9.4c-3.4-1.1-6.2-3.4-8-6.3l-28-48
		c-0.5-0.8-0.9-1.6-1.2-2.3c-2.9-7.6,0.9-16.2,8.5-19.1c7.1-2.7,15.2,0.5,18.5,7.3l17.1,36.4l7.8-17.4L269.4,288.1z"/>
	<path class="st5" d="M265.4,462.9l-19.2,1.7l-10.4-75.7c-34.4,5.8-66.8,7.7-94.9,0.6c-9.5-2.3-15.3-12-13-21.4
		c0.1-0.5,0.2-0.9,0.4-1.3c3.4-10,9.3-20.7,16.2-31.8l46.1,16.5l1.7,7l49.1-6.3c9.9-1.3,18.9,5.7,20.2,15.6c0.1,0.5,0.1,1,0.2,1.6
		L265.4,462.9z"/>
	<path class="st5" d="M286.2,477.5L286.2,477.5c0.4-2.7-0.8-5.2-3.1-6.7l-19.6-9.6l-14.8,1.9l-3.5,12.5c-0.6,3.6,1.9,7,5.5,7.7
		c0.1,0,0.2,0,0.3,0.1l27.6,0.1C282.4,483.8,285.7,481.2,286.2,477.5z"/>
	<path class="st5" d="M270.2,453.2l-19.2,1.7l-10.4-75.7c-34.4,5.8-66.8,7.7-94.9,0.6c-9.5-2.3-15.3-12-13-21.4
		c0.1-0.5,0.2-0.9,0.4-1.3c3.4-10,9.3-20.7,16.2-31.8l46.1,16.5l1.7,7l49.1-6.3c9.9-1.3,18.9,5.7,20.2,15.6c0.1,0.5,0.1,1,0.2,1.6
		L270.2,453.2z"/>
	<path class="st5" d="M291.1,467.9L291.1,467.9c0.4-2.7-0.8-5.2-3.1-6.7l-19.6-9.6l-14.8,1.9l-3.5,12.5c-0.6,3.6,1.9,7,5.5,7.7
		c0.1,0,0.2,0,0.3,0.1l27.6,0.1C287.2,474.1,290.5,471.6,291.1,467.9z"/>
	<circle class="st4" cx="235.4" cy="222.8" r="23.5"/>
	<polygon class="st4" points="234.6,270.6 207.6,267.1 218.1,234.9 244.1,234.9 	"/>
	<path class="st0" d="M241.9,303c-1.3,3.8-3.4,7.4-5.9,10.5c-3.6,4.4-7.9,8.1-12.8,11.1c-0.9,0.5-1.7,1.1-2.7,1.6l-5.2,4.4
		l-18.3,15.6L146.7,327c11.1-24.7,25-44.3,40.9-60c6.8-9.9,19-14.6,30.7-11.7l18.9,4.7C243.9,276,246.4,290.6,241.9,303z"/>
	<path class="st3" d="M250.2,267.4c-0.7,0.7-0.7,1.9,0,2.6c0.5,0.2,12,13.4,12.8,12.4c0.5,0,0.9-0.2,1.3-0.5l35.1-35
		c0.4-0.4,0.5-0.9,0.5-1.5c0.9-0.9-14.2-9.9-14.6-10.3c-0.7-0.5-1.6-0.4-2.3,0.2L250.2,267.4z"/>
	<path class="st2" d="M296.4,245.1l-1.4-0.9c0.4,0.7,0.1,1.5-0.5,1.9c-0.5,0.2-0.9,0.2-1.4-0.1l-9.2-6.3c-0.6-0.5-0.8-1.3-0.3-1.9
		c0.2-0.2,0.4-0.4,0.7-0.5c-0.4-0.2-0.9-0.9-1.3-0.4l-31.1,30.6c-1.1,0.5,11.3,11.3,11.3,11.7c0.9,1,32.9-33.2,33.5-33.2
		c0.2-0.2,0.2-0.5,0-0.7C296.4,245.1,296.4,245.1,296.4,245.1z"/>
	<polygon class="st1" points="260.5,260.6 270,269.6 292.7,247.2 281.2,239.7 	"/>
	<path class="st0" d="M291.8,252.7c0.2,0.2,0.3,0.2,0.5,0c0.1-0.3,2.5-2,2-2.4c-0.2-0.2-0.3-0.2-0.5,0
		C293.6,250.5,291.3,252.3,291.8,252.7L291.8,252.7z"/>
	<path class="st0" d="M288.9,256.1c0.1-0.3,2.5-2,2-2.4c-0.4-0.5-2.2,1.9-2.4,2C288.2,255.9,288.6,256.4,288.9,256.1z"/>
	<path class="st1" d="M262.9,268.4c0.1,2.9-4.5,2.9-4.5,0C258.4,265.5,263,265.5,262.9,268.4z"/>
	<path class="st6" d="M236.1,313.5c-3.6,4.4-7.9,8.1-12.8,11.1c-0.9,0.5-1.7,1.1-2.7,1.6l-5.2,4.4c-10.2-13.5-9.7-54.5-9.7-54.5
		l15.6,1.6L236.1,313.5z"/>
	<path class="st4" d="M266.7,302.7l-10.4-5.2L265,274l2.3-11.8c0.9-4.9,5.6-8.1,10.5-7.1c1.5,0.3,3,1,4.1,2l0,0
		c3.7,3.1,4.1,8.6,1.2,12.4l-8.5,10.7L266.7,302.7z"/>
	<path class="st0" d="M256.3,293.2l13.9,7l-10.6,33.1c-1.6,4.9-5.5,8.5-10.4,9.7l0,0c-6.1,1.5-12.5-1.3-15.7-6.7l-28-48
		c-4.1-6.9-2-15.8,4.8-20.1l0,0c6.9-4.4,16-2.3,20.4,4.5c0.3,0.5,0.5,0.9,0.8,1.4l17.1,36.4L256.3,293.2z"/>
	<path class="st5" d="M244.3,213.6c1.9,1.6,4.1,2.9,6.4,3.8c2.3,0.8,5.1,0.8,7.2-0.5c2.5-1.6,3.6-4.8,3.4-7.7
		c-0.2-2.9-1.7-5.6-3.4-8c-11-15.3-32.4-18.9-47.8-7.8c-2.9,2.1-5.5,4.6-7.6,7.5c-2.2,3-3.9,6.4-4.1,10.2
		c-0.3,6.5,4.1,12.6,3.7,19.1c-0.4,5.5-4.4,10.2-9.1,13.1c-4.7,2.9-10.1,4.4-15.3,6.2c-5.2,1.8-10.6,3.9-14.4,7.9
		c-3.8,4-6,10-3.9,15.2c1.7,4.2,5.9,6.9,10.1,8.7c11.2,4.8,23.7,5.2,35.2,1.3c4.2-1.5,8.8-4.4,8.9-8.9c0-2-0.9-3.8-1.4-5.6
		c-0.5-1.9-0.6-4.1,0.7-5.6c1.6-1.8,4.7-1.3,6.7,0.1c2,1.4,3.2,3.6,4.9,5.4c3.1,3.4,7.7,5.6,12.3,4.9s8.6-4.5,8.8-9.1
		c0.3-7.9-9.5-12.8-10.6-20.6c-0.7-5.2,2.7-10,5.6-14.3s5.7-9.9,3.6-14.6"/>
	<path class="st3" d="M117.8,397.8c-10.8,0-19.6-8.8-19.6-19.6c0-2.6,0.5-5.2,1.6-7.6l2.9,1.3c-3.5,8.4,0.4,18,8.8,21.5
		c4,1.6,8.4,1.7,12.4,0.2l1.2,2.9C122.7,397.3,120.3,397.8,117.8,397.8z"/>
	<path class="st1" d="M97.4,377.3L97.4,377.3c-4.6-0.2-8.2-3.9-8.2-8.4V228.4l0,0c2.8-2.8,7.4-2.8,10.2,0c0.2,0.2,0.5,0.5,0.7,0.8
		c40,54.1,41.8,102.6,3.9,145.3C102.3,376.3,99.9,377.4,97.4,377.3z"/>
	<path class="st3" d="M88,368.8L88,368.8V228.8l0,0c1.5,0,2.8,0.8,3.5,2c18.2,32.7,31.7,58.5,31.4,82c-0.3,21-15,30.6-27.9,52
		C93.5,367.3,90.8,368.8,88,368.8z"/>
	<polygon class="st3" points="147.9,397.4 123.6,397.4 123.6,391.1 143.2,385.6 	"/>
	<path class="st3" d="M139.3,391.1h64.2l0,0l0,0c0,7.4-5.9,13.3-13.3,13.3l0,0h-37.6C145.2,404.4,139.3,398.5,139.3,391.1
		L139.3,391.1L139.3,391.1L139.3,391.1z"/>
	<rect x="169.8" y="402.9" class="st3" width="8.6" height="7"/>
	<rect x="166.7" y="408.3" class="st3" width="15.6" height="21.1"/>
	<rect x="167.8" y="440.8" class="st3" width="13.3" height="28.2"/>
	<polygon class="st3" points="188.2,443.9 160.8,443.9 164.7,426.7 188.2,426.7 	"/>
	<path class="st3" d="M163.9,442.4l-55.6,25.8l-0.8,3.9h-7.8l0.4-5.9c0.2-4.1,2.7-7.7,6.3-9.5l59.1-29.9L163.9,442.4z"/>
	<path class="st3" d="M185,442.4l58.7,25.8l0.8,3.9h7.8l-0.4-5.9c-0.2-4.1-2.7-7.7-6.3-9.5l-57.5-29.9L185,442.4z"/>
	<circle class="st3" cx="102.9" cy="479.9" r="8.6"/>
	<circle class="st3" cx="202.3" cy="479.9" r="8.6"/>
	<circle class="st3" cx="248.4" cy="479.9" r="8.6"/>
	<path class="st3" d="M205.4,474.5l-6.3-0.8l-1.6-6.3l-21.1-25.8l9.4-9.4l16.7,25.4c1.9,2.8,2.8,6.1,2.8,9.5V474.5z"/>
	<path class="st1" d="M231,393.1H127.3c-5.7,0-10.3-4.6-10.3-10.3l0,0v-5.6c0-4.8,2.1-9.3,5.9-12.4c17.5-14.5,31.7-26.8,51.2-25.8
		c16.9,0.9,38.3,22.1,56.7,28.7c6.3,2.3,10.6,8.3,10.6,15.1l0,0C241.4,388.5,236.8,393.1,231,393.1L231,393.1z"/>
</g>
</svg>
