<?xml version="1.0" encoding="UTF-8" standalone="no"?>
<svg
   xmlns:dc="http://purl.org/dc/elements/1.1/"
   xmlns:cc="http://creativecommons.org/ns#"
   xmlns:rdf="http://www.w3.org/1999/02/22-rdf-syntax-ns#"
   xmlns:svg="http://www.w3.org/2000/svg"
   xmlns="http://www.w3.org/2000/svg"
   xmlns:sodipodi="http://sodipodi.sourceforge.net/DTD/sodipodi-0.dtd"
   xmlns:inkscape="http://www.inkscape.org/namespaces/inkscape"
   id="af9e46fd-88b7-4118-ae45-415b3f4cf6e6"
   data-name="Layer 1"
   width="770.30145"
   height="650.85004"
   viewBox="0 0 770.30145 650.85004"
   version="1.1"
   sodipodi:docname="food.svg"
   inkscape:version="1.0.1 (3bc2e813f5, 2020-09-07)">
  <metadata
     id="metadata891">
    <rdf:RDF>
      <cc:Work
         rdf:about="">
        <dc:format>image/svg+xml</dc:format>
        <dc:type
           rdf:resource="http://purl.org/dc/dcmitype/StillImage" />
        <dc:title />
      </cc:Work>
    </rdf:RDF>
  </metadata>
  <defs
     id="defs889" />
  <sodipodi:namedview
     pagecolor="#ffffff"
     bordercolor="#666666"
     borderopacity="1"
     objecttolerance="10"
     gridtolerance="10"
     guidetolerance="10"
     inkscape:pageopacity="0"
     inkscape:pageshadow="2"
     inkscape:window-width="1873"
     inkscape:window-height="1027"
     id="namedview887"
     showgrid="false"
     inkscape:zoom="1"
     inkscape:cx="555.3361"
     inkscape:cy="360.02243"
     inkscape:window-x="47"
     inkscape:window-y="30"
     inkscape:window-maximized="1"
     inkscape:current-layer="af9e46fd-88b7-4118-ae45-415b3f4cf6e6"
     inkscape:document-rotation="0" />
  <path
     d="m 709.42115,569.57331 c 0,0 -112.306,-51.70032 -72.853,-87.55227 39.453,-35.85195 72.853,87.55227 72.853,87.55227 z"
     fill="#e6e6e6"
     id="path782"
     style="fill:#6abfbd;fill-opacity:1" />
  <path
     d="m 707.46643,581.63707 c 0,0 -51.62,-169.6065 24.39237,-161.49519 76.01237,8.11131 -24.39237,161.49519 -24.39237,161.49519 z"
     fill="#e6e6e6"
     id="path784"
     style="fill:#6abfbd;fill-opacity:1" />
  <path
     d="m 669.82972,566.59502 2.16658,28.37159 0.0344,0.49006 a 130.35307,130.35307 0 0 0 0.67063,13.26586 c 2.94031,28.939 15.57857,42.12751 30.349,42.12751 14.77043,0 26.85843,-13.18851 29.79875,-42.12751 a 130.356,130.356 0 0 0 0.67062,-13.26586 l 0.0172,-0.3955 0.009,-0.0946 2.17518,-28.37159 z"
     fill="#e6e6e6"
     id="path786"
     style="fill:#6abfbd;fill-opacity:1" />
  <path
     d="m 733.54544,594.96661 -0.009,0.0946 -0.0172,0.3955 a 130.356,130.356 0 0 1 -0.67062,13.26586 h -60.14773 a 130.35307,130.35307 0 0 1 -0.67063,-13.26586 l -0.0344,-0.49006 z"
     fill="#ffffff"
     id="path788" />
  <path
     d="M299.65949,718.83877s-41.76-19.22429-27.08972-32.55551S299.65949,718.83877,299.65949,718.83877Z"
     transform="translate(-214.84928 -124.57498)"
     fill="#e6e6e6"
     id="path790"
     style="fill:#6abfbd;fill-opacity:1" />
  <path
     d="M272.00407,716.80251l1.50745,19.74023.02391.341a90.69705,90.69705,0,0,0,.46661,9.23c2.0458,20.135,10.83918,29.31126,21.11606,29.31126s18.68741-9.17623,20.73321-29.31126a90.6971,90.6971,0,0,0,.4666-9.23l.012-.27518.006-.0658,1.51344-19.74023Z"
     transform="translate(-214.84928 -124.57498)"
     fill="#e6e6e6"
     id="path792"
     style="fill:#6abfbd;fill-opacity:1" />
  <rect
     width="247.65997"
     height="256.25"
     fill="#e6e6e6"
     id="rect874"
     style="fill:#6abfbd;stroke:#6abfbd;fill-opacity:1;stroke-opacity:1" />
  <rect
     x="13.21997"
     y="13.67999"
     width="221.22003"
     height="228.89001"
     fill="#fff"
     id="rect876" />
  <polygon
     points="56.26 246.57 64.139 246.57 64.089 243.398 63.954 236.362 62.705 164.015 62.688 163.677 62.047 126.711 60.478 36.85 60.124 36.85 58.453 127.369 57.795 163.694 57.778 164.032 56.26 246.57"
     fill="#e6e6e6"
     id="polygon878"
     style="fill:#6abfbd;fill-opacity:1" />
  <rect
     x="283.01613"
     y="348.73676"
     width="6.29051"
     height="23.76413"
     transform="translate(257.09777 -185.16627) rotate(62.23413)"
     fill="#e6e6e6"
     id="rect880"
     style="fill:#6abfbd;fill-opacity:1" />
  <rect
     x="119"
     y="6.85004"
     width="10"
     height="242"
     fill="#e6e6e6"
     id="rect882"
     style="fill:#6abfbd;fill-opacity:1" />
  <rect
     y="122.85004"
     width="247.65997"
     height="10"
     fill="#e6e6e6"
     id="rect884"
     style="fill:#6abfbd;fill-opacity:1" />
  <path
     d="m 327.56396,396.67483 v 195.827 h 30.79041 V 413.91745 h 123.16165 v 178.5844 h 30.79042 V 200.84779 h -30.79042 c -10.20308,0 -25.86395,53.13887 -25.86395,106.53483 0,40.24749 4.70035,74.74 11.384,89.2922 z m 153.95206,0 h -0.29948 c 0.10058,-0.219 0.1998,-0.45013 0.29948,-0.67813 z"
     fill="#3f3d56"
     id="path593" />
  <path
     d="m 441.66539,103.92071 h -10e-5 c -25.27389,0 -45.76244,22.73779 -45.76244,50.78624 v 35.63588 h 10.96 l 6.34519,-13.20337 -1.58632,13.20337 h 70.44643 l 5.76836,-12.00306 -1.44208,12.00306 h 7.93151 v -27.98054 c 10e-6,-32.27635 -23.57693,-58.44158 -52.66055,-58.44158 z"
     fill="#2f2e41"
     id="path595" />
  <path
     d="m 389.22968,336.74659 -28.09776,11.94155 -97.63969,79.37616 a 28.738,28.738 0 0 0 -6.322,15.45377 c -0.70244,9.13177 -30.20508,56.89795 -19.66842,63.21995 10.53666,6.322 48.46862,25.288 50.576,12.644 2.10738,-12.644 13.34644,-66.73217 13.34644,-66.73217 l 94.12747,-84.29326 z"
     fill="#2f2e41"
     id="path597" />
  <path
     d="m 278.94599,508.84534 -11.94154,35.1222 c 0,0 12.644,13.34642 6.322,24.58553 v 38.63441 h -9.83421 l -2.80978,-20.37087 c 0,0 -11.20122,20.11351 -16.85865,20.37087 -11.86,0.53952 -35.34608,4.75816 -36.04853,-1.56385 -0.70245,-6.32199 17.785,-12.48499 17.785,-12.48499 l 19.66843,-54.08818 8.42932,-33.01486 z"
     fill="#2f2e41"
     id="path599" />
  <path
     d="m 462.28384,327.61483 c 0,0 6.322,61.81505 -11.94155,73.05415 -18.26355,11.2391 -99.04458,47.06374 -99.04458,47.06374 0,0 34.41975,32.31242 27.39531,40.03931 -7.02444,7.72687 -38.63441,28.8002 -42.84908,24.58553 -4.21467,-4.21465 -51.2784,-54.79062 -45.65885,-70.94683 5.61955,-16.15621 83.59082,-68.8395 83.59082,-68.8395 l 9.13177,-33.01486 2.80978,-26.69287 29.50264,-18.966 z"
     fill="#2f2e41"
     id="path601" />
  <circle
     cx="430.1015"
     cy="154.41005"
     r="29.283701"
     fill="#ffb9b9"
     id="circle603" />
  <path
     d="m 452.80085,166.40401 c 0,0 -1.40489,26.69285 20.37087,35.12218 21.77576,8.42933 -54.08818,63.21995 -54.08818,63.21995 v -61.11266 c 0,0 9.83422,-10.53666 0,-26.69285 z"
     fill="#ffb9b9"
     id="path605" />
  <path
     d="m 499.51336,291.7902 -5.61955,27.3953 -16.85865,94.1275 c 0,0 14.04888,40.03931 -4.91711,39.33686 -18.96599,-0.70244 -9.83421,-43.55151 -9.83421,-43.55151 l 9.83421,-77.97127 v -30.20507 z"
     fill="#ffb9b9"
     id="path607" />
  <path
     d="m 378.69302,278.44376 -6.322,24.58554 -28.8002,69.54194 c 0,0 -19.66843,33.01486 -3.51222,32.31241 16.15621,-0.70244 16.15621,-32.31241 16.15621,-32.31241 l 33.01486,-56.19551 v -31.61001 z"
     fill="#ffb9b9"
     id="path609" />
  <path
     d="m 373.77591,483.55736 23.18065,21.77576 c 0,0 16.15621,-3.51222 22.4782,15.45376 6.32199,18.96598 10.53666,30.90753 10.53666,30.90753 l -8.42932,4.91711 -10.53666,-14.75132 c 0,0 -6.322,26.69287 -12.644,28.8002 -6.322,2.10733 -37.932,16.15621 -35.12219,0 l 15.45376,-22.47821 c 0,0 2.10733,-25.288 -4.21466,-27.39531 -6.32199,-2.10731 -23.18065,-23.18064 -23.18065,-23.18064 z"
     fill="#2f2e41"
     id="path611" />
  <path
     d="m 463.3974,349.39059 c 0,0 -66.02973,-23.8831 -70.24439,-21.77576 a 31.67707,31.67707 0 0 1 -9.8941,2.56799 l 0.0599,-9.5924 c 0,0 21.77576,-7.72689 33.7173,-2.80977 11.94154,4.91711 48.46863,26.69287 48.46863,26.69287 z"
     fill="#3f3d56"
     id="path613" />
  <path
     d="m 423.29821,250.69722 c 0,0 18.966,-21.77575 24.58553,-35.12219 A 34.4852,34.4852 0 0 1 466.11488,197.648 c 0,0 42.179,9.49774 41.47659,26.3564 -0.70241,16.85864 -26.69287,42.84907 -26.69287,42.84907 0,0 3.51222,93.425 -15.45376,92.02014 a 40.68115,40.68115 0 0 1 -8.42933,-16.85865 c -2.10733,-9.83421 -67.43461,-20.37086 -67.43461,-20.37086 0,0 -5.61955,9.8342 -6.322,5.61955 -0.70245,-4.21467 5.61955,-107.47392 5.61955,-107.47392 L 422.37587,197.648 Z"
     fill="#d0cde1"
     id="path615" />
  <path
     d="m 502.18053,217.21847 0.47037,0.264 a 9.69114,9.69114 0 0 1 4.94846,8.4527 l -0.007,52.13042 a 9.76765,9.76765 0 0 0 3.47464,7.4341 c 2.70588,2.30158 5.21508,5.61815 0.0369,7.3442 -8.42933,2.80978 -41.44419,16.85866 -42.14663,11.94155 -0.70244,-4.9171 -2.10734,-10.53665 0,-10.53665 1.64977,0 11.47944,-50.37101 19.37772,-71.90771 a 9.69273,9.69273 0 0 1 13.84575,-5.12261 z"
     fill="#d0cde1"
     id="path617" />
  <path
     d="m 398.36145,217.33115 -9.83422,2.80976 -11.2391,48.46863 c 0,0 -13.34643,2.80978 -9.13177,7.72688 4.21466,4.91711 21.77576,17.5611 21.77576,17.5611 z"
     fill="#d0cde1"
     id="path619" />
  <path
     d="M 454.67482,117.91065 A 24.00019,24.00019 0 0 0 435.73794,108.247 h -0.89845 c -17.32278,0 -31.36559,15.67512 -31.36559,35.01138 v 8e-5 h 5.8044 l 0.9374,-7.13514 1.37441,7.13514 h 34.4256 l 2.88421,-6.03646 -0.72107,6.03646 h 6.7725 q 4.74044,23.54219 -13.62243,47.08437 h 11.53679 l 5.76836,-12.07292 -1.44207,12.07292 h 21.99194 l 4.32629,-27.76778 c 0,-20.79549 -12.08279,-38.42965 -28.83541,-44.6644 z"
     fill="#2f2e41"
     id="path621" />
  <path
     d="m 619.54075,407.74291 c 0,-18.04984 -100.46524,-32.68216 -224.39536,-32.68216 -123.93011,0 -224.39536,14.63232 -224.39536,32.68216 0,6.99564 15.09947,13.47711 40.79916,18.79316 v 223.59961 h 12.23974 V 428.84151 c 41.16173,7.08431 102.64664,11.58357 171.35646,11.58357 69.27763,0 131.21433,-4.57349 172.37644,-11.75928 v 221.46988 h 12.23974 V 426.32169 c 25.07564,-5.27562 39.77918,-11.67665 39.77918,-18.57878 z"
     fill="#3f3d56"
     id="path663"
     style="stroke-width:0.865458" />
  <ellipse
     cx="398.30124"
     cy="395.92072"
     rx="61"
     ry="15"
     fill="#f2f2f2"
     id="ellipse665" />
  <ellipse
     cx="398.30124"
     cy="395.92072"
     rx="50"
     ry="12.29508"
     fill="#d0cde1"
     id="ellipse667" />
  <path
     d="m 333.27378,292.3366 c -0.94871,-2.02466 -1.69746,-3.45673 -1.95955,-3.94959 -16.09007,3.97066 -26.82534,0.61532 -28.51827,0.0219 -0.8278,1.56345 -5.99633,11.557 -8.08531,21.13829 -1.88708,8.64229 -0.79179,14.43599 3.25556,17.2203 l 0.11994,0.0854 0.0263,0.0176 c 4.46767,2.94386 8.72955,5.5511 12.666,7.74853 q 0.79568,0.44281 1.50019,0.82295 l 0.0503,0.0273 0.0354,0.0449 a 23.96539,23.96539 0 0 1 1.50688,2.12609 8.36142,8.36142 0 0 1 1.52855,4.13309 v 42.924 l -0.27115,0.006 c -10.26339,0.20925 -16.61609,1.9492 -16.61609,3.441 0,1.63669 7.61765,3.4605 18.54836,3.4605 10.93071,0 18.54824,-1.82381 18.54824,-3.4605 0,-1.46966 -6.24516,-3.19991 -16.33436,-3.43294 l -0.27224,-0.006 0.25369,-39.70518 a 17.51031,17.51031 0 0 1 1.82635,-7.74692 c 0.20374,-0.40473 0.42269,-0.79836 0.6507,-1.16928 0.18314,-0.29844 0.37718,-0.58966 0.57661,-0.86457 l 0.0366,-0.0505 0.0548,-0.03 q 0.75813,-0.414 1.61,-0.89727 l 0.0666,-0.0362 c 3.72562,-2.10414 7.73985,-4.57139 11.93249,-7.33491 3.7433,-2.46778 5.04665,-7.45547 3.87381,-14.8242 -1.1175,-7.02589 -4.21161,-14.59576 -6.61036,-19.7089 z"
     fill="#d0cde1"
     id="path759" />
  <path
     d="m 334.23523,325.96992 c -4.39567,2.89725 -8.02471,5.0702 -10.8,6.63581 h -0.002 a 63.20229,63.20229 0 0 0 -12.14161,0.341 c -2.845,-1.588 -6.68312,-3.86549 -11.40485,-6.97681 -0.0448,-0.0299 -0.0896,-0.0597 -0.13441,-0.0921 v -0.002 c -4.331,-2.9794 -4.438,-9.28917 -3.02919,-15.74078 3.58425,-0.39827 9.29913,-0.22401 16.97786,2.51892 9.09253,3.2482 18.61067,1.41129 24.12642,-0.25887 0.906,5.69247 0.35342,10.97424 -3.59173,13.57532 z"
     fill="#3d5499"
     id="path761" />
  <circle
     cx="308.10013"
     cy="306.5553"
     r="1.24453"
     fill="#3d5499"
     id="circle763" />
  <circle
     cx="304.61545"
     cy="318.00494"
     r="1.24453"
     fill="#ffffff"
     id="circle765" />
  <circle
     cx="311.08701"
     cy="309.54214"
     r="0.74672002"
     fill="#3d5499"
     id="circle767" />
  <circle
     cx="314.07388"
     cy="323.72977"
     r="0.74672002"
     fill="#ffffff"
     id="circle769" />
  <circle
     cx="308.84683"
     cy="324.47647"
     r="0.74672002"
     fill="#ffffff"
     id="circle771" />
  <circle
     cx="324.03006"
     cy="299.58594"
     r="0.74672002"
     fill="#3d5499"
     id="circle773" />
  <path
     d="m 386.86978,386.59054 a 11.264489,11.233113 0 0 0 -1.21142,-5.07265 l -6.54693,2.03094 5.74622,-3.3705 a 11.304053,11.272567 0 0 0 -8.49876,-4.83217 11.356805,11.325173 0 0 0 -0.88737,-1.17986 l -9.40874,2.91771 7.71313,-4.51278 a 11.304053,11.272567 0 0 0 -17.802,6.01203 l 8.05414,9.24351 -8.74557,-6.29761 a 11.313473,11.281961 0 0 0 10.12467,19.91487 11.353037,11.321415 0 0 0 7.23836,0.19163 11.322893,11.291355 0 0 0 13.75326,-11.01517 c 0,-0.25176 -0.009,-0.49976 -0.0264,-0.75151 a 11.290865,11.259416 0 0 0 0.49738,-3.27844 z"
     fill="#57b894"
     id="path98"
     style="stroke-width:0.188138" />
  <path
     d="m 395.11523,394.77176 a 4.7332045,5.7932288 0 0 0 -0.50903,-2.61611 l -2.75094,1.04741 2.41449,-1.73826 a 4.7498288,5.8135763 0 0 0 -3.57108,-2.49208 4.7719946,5.8407067 0 0 0 -0.37286,-0.60849 l -3.95344,1.50475 3.24097,-2.32737 a 4.7498288,5.8135763 0 0 0 -7.48019,3.10057 l 3.38425,4.76714 -3.67478,-3.24786 a 4.753787,5.818421 0 0 0 4.25426,10.27066 4.7704113,5.8387686 0 0 0 3.04148,0.0988 4.7577452,5.8232658 0 0 0 5.77895,-5.68083 c 0,-0.12984 -0.004,-0.25774 -0.0111,-0.38757 a 4.7442874,5.8067939 0 0 0 0.20899,-1.69078 z"
     fill="#57b894"
     id="path98-3"
     style="stroke-width:0.0875808" />
  <path
     d="M 437.59293,394.77511 A 4.7332045,5.7932288 0 0 0 437.0839,392.159 l -2.75094,1.04741 2.41449,-1.73826 a 4.7498288,5.8135763 0 0 0 -3.57108,-2.49208 4.7719946,5.8407067 0 0 0 -0.37286,-0.60849 l -3.95344,1.50475 3.24097,-2.32737 a 4.7498288,5.8135763 0 0 0 -7.48019,3.10057 l 3.38425,4.76714 -3.67478,-3.24786 a 4.753787,5.818421 0 0 0 4.25426,10.27066 4.7704113,5.8387686 0 0 0 3.04148,0.0988 4.7577452,5.8232658 0 0 0 5.77895,-5.68083 c 0,-0.12984 -0.004,-0.25774 -0.0111,-0.38757 a 4.7442874,5.8067939 0 0 0 0.20899,-1.69078 z"
     fill="#57b894"
     id="path98-3-6"
     style="stroke-width:0.0875808" />
  <path
     d="m 425.1658,397.73532 a 10.956294,4.1574589 0 0 0 -1.17829,-1.87743 l -6.3678,0.75166 5.589,-1.24744 a 10.994776,4.1720611 0 0 0 -8.26624,-1.78842 11.046085,4.191531 0 0 0 -0.86309,-0.43668 l -9.15132,1.07987 7.50211,-1.67022 a 10.994776,4.1720611 0 0 0 -17.31494,2.2251 l 7.83377,3.4211 -8.50628,-2.3308 a 11.003938,4.1755379 0 0 0 9.84765,7.37065 11.04242,4.1901401 0 0 0 7.04033,0.0709 11.013101,4.1790147 0 0 0 13.37696,-4.0768 c 0,-0.0932 -0.009,-0.18496 -0.0257,-0.27813 a 10.981949,4.1671938 0 0 0 0.48376,-1.21338 z"
     fill="#57b894"
     id="path98-3-6-7"
     style="stroke-width:0.11288" />
  <path
     d="m 425.8981,395.23572 a 7.2063336,8.0412296 0 0 0 -0.775,-3.63126 l -4.18833,1.45384 3.67608,-2.41277 a 7.2316442,8.0694728 0 0 0 -5.43699,-3.45911 7.2653918,8.1071308 0 0 0 -0.56768,-0.8446 l -6.01914,2.08865 4.9344,-3.23048 a 7.2316442,8.0694728 0 0 0 -11.38864,4.30371 l 5.15254,6.61698 -5.59487,-4.50816 a 7.2376706,8.0761974 0 0 0 6.47713,14.25608 7.2629812,8.1044407 0 0 0 4.63068,0.13714 7.243697,8.0829222 0 0 0 8.79848,-7.88522 c 0,-0.18022 -0.006,-0.35775 -0.0169,-0.53796 a 7.2232074,8.0600585 0 0 0 0.31819,-2.34687 z"
     fill="#57b894"
     id="path98-3-6-5"
     style="stroke-width:0.127318" />
</svg>
