<?xml version="1.0" encoding="UTF-8" standalone="no"?>
<svg
   xmlns:dc="http://purl.org/dc/elements/1.1/"
   xmlns:cc="http://creativecommons.org/ns#"
   xmlns:rdf="http://www.w3.org/1999/02/22-rdf-syntax-ns#"
   xmlns:svg="http://www.w3.org/2000/svg"
   xmlns="http://www.w3.org/2000/svg"
   xmlns:sodipodi="http://sodipodi.sourceforge.net/DTD/sodipodi-0.dtd"
   xmlns:inkscape="http://www.inkscape.org/namespaces/inkscape"
   id="af9e46fd-88b7-4118-ae45-415b3f4cf6e6"
   data-name="Layer 1"
   width="770.30145"
   height="650.85004"
   viewBox="0 0 770.30145 650.85004"
   version="1.1"
   sodipodi:docname="health.svg"
   inkscape:version="1.0.1 (3bc2e813f5, 2020-09-07)">
  <metadata
     id="metadata891">
    <rdf:RDF>
      <cc:Work
         rdf:about="">
        <dc:format>image/svg+xml</dc:format>
        <dc:type
           rdf:resource="http://purl.org/dc/dcmitype/StillImage" />
        <dc:title></dc:title>
      </cc:Work>
    </rdf:RDF>
  </metadata>
  <defs
     id="defs889">
    <linearGradient
       id="4e52bdea-3ee3-4982-ab0f-41ec51f7690b"
       x1="593"
       y1="777.91998"
       x2="593"
       y2="344.92001"
       gradientUnits="userSpaceOnUse"
       gradientTransform="translate(-195.73916,-123.42461)">
      <stop
         offset="0"
         stop-color="gray"
         stop-opacity="0.25"
         id="stop3173" />
      <stop
         offset="0.54"
         stop-color="gray"
         stop-opacity="0.12"
         id="stop3175" />
      <stop
         offset="1"
         stop-color="gray"
         stop-opacity="0.1"
         id="stop3177" />
    </linearGradient>
  </defs>
  <sodipodi:namedview
     pagecolor="#ffffff"
     bordercolor="#666666"
     borderopacity="1"
     objecttolerance="10"
     gridtolerance="10"
     guidetolerance="10"
     inkscape:pageopacity="0"
     inkscape:pageshadow="2"
     inkscape:window-width="1873"
     inkscape:window-height="1027"
     id="namedview887"
     showgrid="false"
     inkscape:zoom="1"
     inkscape:cx="555.3361"
     inkscape:cy="360.02243"
     inkscape:window-x="47"
     inkscape:window-y="30"
     inkscape:window-maximized="1"
     inkscape:current-layer="af9e46fd-88b7-4118-ae45-415b3f4cf6e6"
     inkscape:document-rotation="0" />
  <path
     d="m 709.42115,569.57331 c 0,0 -112.306,-51.70032 -72.853,-87.55227 39.453,-35.85195 72.853,87.55227 72.853,87.55227 z"
     fill="#e6e6e6"
     id="path782"
     style="fill:#6abfbd;fill-opacity:1" />
  <path
     d="m 707.46643,581.63707 c 0,0 -51.62,-169.6065 24.39237,-161.49519 76.01237,8.11131 -24.39237,161.49519 -24.39237,161.49519 z"
     fill="#e6e6e6"
     id="path784"
     style="fill:#6abfbd;fill-opacity:1" />
  <path
     d="m 669.82972,566.59502 2.16658,28.37159 0.0344,0.49006 a 130.35307,130.35307 0 0 0 0.67063,13.26586 c 2.94031,28.939 15.57857,42.12751 30.349,42.12751 14.77043,0 26.85843,-13.18851 29.79875,-42.12751 a 130.356,130.356 0 0 0 0.67062,-13.26586 l 0.0172,-0.3955 0.009,-0.0946 2.17518,-28.37159 z"
     fill="#e6e6e6"
     id="path786"
     style="fill:#6abfbd;fill-opacity:1" />
  <path
     d="m 733.54544,594.96661 -0.009,0.0946 -0.0172,0.3955 a 130.356,130.356 0 0 1 -0.67062,13.26586 h -60.14773 a 130.35307,130.35307 0 0 1 -0.67063,-13.26586 l -0.0344,-0.49006 z"
     fill="#ffffff"
     id="path788" />
  <path
     d="M299.65949,718.83877s-41.76-19.22429-27.08972-32.55551S299.65949,718.83877,299.65949,718.83877Z"
     transform="translate(-214.84928 -124.57498)"
     fill="#e6e6e6"
     id="path790"
     style="fill:#6abfbd;fill-opacity:1" />
  <path
     d="M272.00407,716.80251l1.50745,19.74023.02391.341a90.69705,90.69705,0,0,0,.46661,9.23c2.0458,20.135,10.83918,29.31126,21.11606,29.31126s18.68741-9.17623,20.73321-29.31126a90.6971,90.6971,0,0,0,.4666-9.23l.012-.27518.006-.0658,1.51344-19.74023Z"
     transform="translate(-214.84928 -124.57498)"
     fill="#e6e6e6"
     id="path792"
     style="fill:#6abfbd;fill-opacity:1" />
  <rect
     width="247.65997"
     height="256.25"
     fill="#e6e6e6"
     id="rect874"
     style="fill:#6abfbd;stroke:#6abfbd;fill-opacity:1;stroke-opacity:1" />
  <rect
     x="13.21997"
     y="13.67999"
     width="221.22003"
     height="228.89001"
     fill="#fff"
     id="rect876" />
  <polygon
     points="56.26 246.57 64.139 246.57 64.089 243.398 63.954 236.362 62.705 164.015 62.688 163.677 62.047 126.711 60.478 36.85 60.124 36.85 58.453 127.369 57.795 163.694 57.778 164.032 56.26 246.57"
     fill="#e6e6e6"
     id="polygon878"
     style="fill:#6abfbd;fill-opacity:1" />
  <rect
     x="283.01613"
     y="348.73676"
     width="6.29051"
     height="23.76413"
     transform="translate(257.09777 -185.16627) rotate(62.23413)"
     fill="#e6e6e6"
     id="rect880"
     style="fill:#6abfbd;fill-opacity:1" />
  <rect
     x="119"
     y="6.85004"
     width="10"
     height="242"
     fill="#e6e6e6"
     id="rect882"
     style="fill:#6abfbd;fill-opacity:1" />
  <rect
     y="122.85004"
     width="247.65997"
     height="10"
     fill="#e6e6e6"
     id="rect884"
     style="fill:#6abfbd;fill-opacity:1" />
  <g
     opacity="0.5"
     id="g3202"
     transform="translate(-17.048211,-56.524714)">
    <path
       d="m 854.32,278.35 a 10.9,10.9 0 0 0 -14.21,1.32 11.13,11.13 0 0 0 0.44,15.51 l 13.58,13.5 a 2.27,2.27 0 0 0 3.21,0 l 13.5,-13.58 a 11.13,11.13 0 0 0 0.36,-15.51 10.88,10.88 0 0 0 -14.2,-1.25 2.3,2.3 0 0 1 -2.68,0.01 z"
       transform="translate(-194.18,-69.27)"
       fill="#f55f44"
       id="path3198" />
    <path
       d="m 855.83,308.15 a 2,2 0 0 0 0,1.89 9.77,9.77 0 0 1 0.53,0.88 c 0.35,0.87 -0.26,1.82 -0.88,2.53 -0.39,0.45 -0.82,1.05 -0.57,1.6 a 2.07,2.07 0 0 0 0.46,0.52 3.34,3.34 0 0 1 -1.27,5.58"
       transform="translate(-194.18,-69.27)"
       fill="none"
       stroke="#f55f44"
       stroke-miterlimit="10"
       id="path3200" />
  </g>
  <g
     opacity="0.5"
     id="g3214"
     transform="translate(-14.500261,83.174392)">
    <path
       d="m 654.32,71.35 a 10.9,10.9 0 0 0 -14.21,1.32 11.13,11.13 0 0 0 0.44,15.51 l 13.58,13.5 a 2.27,2.27 0 0 0 3.21,0 l 13.5,-13.58 a 11.13,11.13 0 0 0 0.36,-15.51 10.88,10.88 0 0 0 -14.2,-1.25 2.3,2.3 0 0 1 -2.68,0.01 z"
       transform="translate(-194.18,-69.27)"
       fill="#f55f44"
       id="path3210" />
    <path
       d="m 655.83,101.15 a 2,2 0 0 0 0,1.89 9.77,9.77 0 0 1 0.53,0.88 c 0.35,0.87 -0.26,1.82 -0.88,2.53 -0.39,0.45 -0.82,1 -0.57,1.6 a 2.07,2.07 0 0 0 0.46,0.52 3.34,3.34 0 0 1 -1.27,5.58"
       transform="translate(-194.18,-69.27)"
       fill="none"
       stroke="#f55f44"
       stroke-miterlimit="10"
       id="path3212" />
  </g>
  <g
     opacity="0.5"
     id="g3220"
     transform="translate(-17.048211,-56.524714)">
    <rect
       x="552"
       y="141.17999"
       width="3"
       height="17"
       fill="#47e6b1"
       id="rect3216" />
    <rect
       x="746.17999"
       y="210.44"
       width="3"
       height="17"
       transform="rotate(90,685.22,87.22)"
       fill="#47e6b1"
       id="rect3218" />
  </g>
  <g
     opacity="0.5"
     id="g3238"
     transform="translate(-17.048211,-56.524714)">
    <rect
       x="661"
       y="383.17999"
       width="3"
       height="17"
       fill="#47e6b1"
       id="rect3234" />
    <rect
       x="855.17999"
       y="452.44"
       width="3"
       height="17"
       transform="rotate(90,794.22,329.22)"
       fill="#47e6b1"
       id="rect3236" />
  </g>
  <path
     d="m 312.58974,115.96439 a 3.68,3.68 0 0 1 -2,-4.44 1.19,1.19 0 0 0 0.08,-0.41 v 0 a 1.84,1.84 0 0 0 -3.35,-1.21 v 0 a 2.08,2.08 0 0 0 -0.2,0.36 3.68,3.68 0 0 1 -4.44,2.05 1.86,1.86 0 0 0 -0.41,-0.08 v 0 a 1.84,1.84 0 0 0 -1.22,3.31 v 0 a 1.82,1.82 0 0 0 0.36,0.2 3.67,3.67 0 0 1 2.05,4.44 2,2 0 0 0 -0.08,0.41 v 0 a 1.84,1.84 0 0 0 3.31,1.22 v 0 a 1.58,1.58 0 0 0 0.2,-0.36 3.69,3.69 0 0 1 4.45,-2.05 1.77,1.77 0 0 0 0.4,0.08 v 0 a 1.84,1.84 0 0 0 1.22,-3.31 v 0 a 1.58,1.58 0 0 0 -0.37,-0.21 z"
     fill="#4d8af0"
     opacity="0.5"
     id="path3244" />
  <g
     id="g240"
     transform="matrix(0.86328817,0,0,0.87680604,13.113759,82.020702)">
    <g
       opacity="0.5"
       id="g3226"
       transform="translate(-1.5591637,-54.154615)">
      <rect
         x="206"
         y="402.17999"
         width="3"
         height="17"
         fill="#47e6b1"
         id="rect3222" />
      <rect
         x="400.17999"
         y="471.44"
         width="3"
         height="17"
         transform="rotate(90,339.22,348.22)"
         fill="#47e6b1"
         id="rect3224" />
    </g>
    <path
       d="m 546.53084,207.63539 a 3.68,3.68 0 0 1 -2,-4.44 1.19,1.19 0 0 0 0.08,-0.41 v 0 a 1.84,1.84 0 0 0 -3.35,-1.21 v 0 a 2.08,2.08 0 0 0 -0.2,0.36 3.68,3.68 0 0 1 -4.44,2 1.86,1.86 0 0 0 -0.41,-0.08 v 0 a 1.84,1.84 0 0 0 -1.22,3.31 v 0 a 1.82,1.82 0 0 0 0.36,0.2 3.67,3.67 0 0 1 2,4.44 2,2 0 0 0 -0.08,0.41 v 0 a 1.84,1.84 0 0 0 3.31,1.22 v 0 a 1.58,1.58 0 0 0 0.2,-0.36 3.69,3.69 0 0 1 4.45,-2.05 1.77,1.77 0 0 0 0.4,0.08 v 0 a 1.84,1.84 0 0 0 1.22,-3.31 v 0 a 1.58,1.58 0 0 0 -0.32,-0.16 z"
       fill="#4d8af0"
       opacity="0.5"
       id="path3240" />
    <path
       d="m 563.92084,558.65539 -48.66,-37.37 c 0,0 -3.92,-15.56 -5.49,-26.46 -1.57,-10.9 -3.93,-57.6 -3.93,-57.6 a 67.73,67.73 0 0 0 2.21,-12.36 c 0.48,-0.1 1,-0.22 1.45,-0.35 a 24.25,24.25 0 0 0 16.39,-14.13 c 5,-12.44 -1.46,-27.14 -9.64,-37 -8.18,-9.86 -18.48,-17.78 -23.86,-30 -6.64,-15.05 -4.37,-33.26 -7.76,-49.74 a 15.05,15.05 0 0 0 -2.5,-6.43 c -2.11,-2.61 -5.4,-3.17 -8.33,-4.21 -9.28,-3.3 -16.24,-12.31 -21.67,-21.72 -8.79,-15.25 -17.89,-38.45 -36,-39.77 -6.73,-0.49 -13.75,1.78 -20.56,1.76 -10.55,0 -21,0.13 -31.46,1.58 -3.74,0.51 -7.61,1.21 -10.73,3.67 -10.71,8.48 -5.86,30.87 -16.18,40 -3.07,2.7 -7,3.68 -10.47,5.54 -13.08,7 -18.89,25.67 -18.12,42.46 0.37,7.88 2,16.07 6.65,21.82 3.69,4.6 8.93,7.24 12.37,12.1 5.53,7.82 4.78,18.21 4.18,28.77 -7.4,3.1 -13.34,6.66 -15.21,10.49 -6.34,12.87 -5.52,56.87 -5.52,56.87 0,0 2.35,72 -15.71,81 l -67.52,46.7 c 0,0 -47.9,-41.64 -59.68,-17.12 -8.05,16.77 21.35,26.26 40.75,30.58 -12.23,8.68 -19,24.72 -13.27,35.58 9,17.13 34.16,28.8 34.16,28.8 0,0 95.95,4.63 140.3,-5.31 h 0.73 c 18.83,3.41 45.85,7 67.52,4.84 0.42,1 0.71,1.64 0.71,1.64 0,0 139,11.68 164.11,-35.8 12.88,-24.36 -0.56,-35.6 -16.72,-40.78 18.09,-1.44 38.69,-6.5 41.06,-21.89 4.32,-28.08 -63.6,3.84 -63.6,3.84 z m -14,14.89 c -25.44,9.26 -46.08,9.78 -57.08,9.09 -5.4,-11.78 -27.92,-62.79 -28.51,-96.94 0.15,-7.62 1.5,-14.28 4.55,-19.28 6.54,-10.77 8.48,-19.22 8.26,-25.63 0,-0.47 0,-0.94 0,-1.4 a 26.17,26.17 0 0 0 -0.56,-5.83 15.34,15.34 0 0 1 0.92,8.34 c -2.35,12.06 3.93,90.29 3.93,90.29 0,0 5.1,17.52 15.7,22.57 z m -249.08,-5.55 24.42,-15.57 c 0,0 11.39,-5.45 12.57,-18.68 l 8.05,-63.23 a 64.44,64.44 0 0 0 2.15,8 c 1.42,4.15 2,10.23 2.12,17.47 -0.31,35.29 -12.32,93.84 -12.32,93.84 h 0.14 c 0,0.17 -0.06,0.31 -0.08,0.42 l -0.85,0.05 c -19.75,-0.6 -65.78,-2.32 -91.54,-5.89 z m -42.58,36.85 v 0.12 h -6 z"
       fill="url(#4e52bdea-3ee3-4982-ab0f-41ec51f7690b)"
       id="path3246"
       style="fill:url(#4e52bdea-3ee3-4982-ab0f-41ec51f7690b)" />
    <path
       d="m 450.26084,267.63539 c 5.24,9.18 12,18 21,21.17 2.83,1 6,1.57 8,4.12 a 14.74,14.74 0 0 1 2.43,6.27 c 3.27,16.06 1.08,33.81 7.5,48.5 5.2,11.89 15.15,19.63 23.06,29.22 7.91,9.59 14.11,23.93 9.32,36.05 a 23.53,23.53 0 0 1 -15.85,13.78 c -6.62,1.8 -13.53,1.05 -20.25,-0.14 -8.86,-1.57 -17.88,-4 -25.26,-10 -12.77,-10.38 -18.17,-29 -24.85,-45.57 -3.14,-7.76 -7.31,-15.89 -14.21,-18.66 -7.9,-3.18 -16.79,2.13 -21.92,9.92 -5.13,7.79 -7.4,17.58 -9.89,27 -2.8,10.64 -6.34,21.68 -13.71,28.64 a 23.07,23.07 0 0 1 -24.64,4.92 c -8.2,-3.41 -14.68,-12.06 -16.57,-22.09 -2.9,-15.45 4.06,-34 -4.49,-46.22 -3.32,-4.73 -8.39,-7.31 -11.95,-11.79 -4.45,-5.61 -6.07,-13.6 -6.42,-21.27 -0.75,-16.38 4.86,-34.63 17.51,-41.41 3.38,-1.81 7.15,-2.76 10.12,-5.4 10,-8.89 5.28,-30.72 15.63,-39 3,-2.41 6.76,-3.08 10.38,-3.59 10.14,-1.4 20.21,-1.56 30.4,-1.53 6.59,0 13.38,-2.2 19.88,-1.72 17.5,1.31 26.29,23.93 34.78,38.8 z"
       fill="#965d7b"
       id="path3248" />
    <polygon
       points="535.82,696.62 530.71,647.09 440.14,636.55 281.32,646.14 264.1,652.85 267.93,698.22 "
       fill="#575988"
       id="polygon3250"
       transform="translate(-1.5591637,-54.154615)" />
    <polygon
       points="535.82,696.62 530.71,647.09 440.14,636.55 281.32,646.14 264.1,652.85 267.93,698.22 "
       opacity="0.05"
       id="polygon3252"
       transform="translate(-1.5591637,-54.154615)" />
    <path
       d="m 438.81084,630.39539 -89.18,8.35 c 0,0 61.1,15.56 96.77,8 z"
       fill="#f7c4a7"
       id="path3254" />
    <path
       d="m 438.81084,630.39539 -89.18,8.35 c 0,0 61.1,15.56 96.77,8 z"
       opacity="0.1"
       id="path3256" />
    <path
       d="m 370.88084,310.86539 c 0,0 17.46,45.92 -8.35,66.41 -25.81,20.49 -4.55,77.8 -4.55,77.8 l 99.43,-4.56 c 0,0 9.86,-64.51 4.55,-78.17 0,0 -23.53,6.83 -28.84,-7.59 -5.31,-14.42 -9.11,-53.89 -9.11,-53.89 z"
       fill="#f7c4a7"
       id="path3258" />
    <path
       d="m 348.11084,588.65539 c 0,0 -83.87,-1.9 -108.53,-8 -24.66,-6.1 -45.92,23.18 -37.19,39.92 8.73,16.74 33,28.08 33,28.08 0,0 124.86,6.07 151.8,-11 0,0 10.25,-29.22 0,-34.91 h -130.16 l 96,-1.9 z"
       fill="#575988"
       id="path3260" />
    <path
       d="m 481.31084,579.92539 c 0,0 28.09,6.07 66.79,-9.11 0,0 72.49,-2.27 48.2,44 -24.29,46.27 -158.63,34.92 -158.63,34.92 0,0 -8,-17.08 0,-21.63 8,-4.55 77.42,-33.78 99.05,-32.26 l -60,11.76 z"
       fill="#575988"
       id="path3262" />
    <path
       d="m 427.45084,332.95539 c -1.45,-10.81 -2.3,-19.62 -2.3,-19.62 h -53.13 a 103.51,103.51 0 0 1 5.08,21.48 41.75,41.75 0 0 0 50.35,-1.86 z"
       opacity="0.1"
       id="path3264" />
    <circle
       cx="399.91083"
       cy="298.1554"
       r="41.740002"
       fill="#f7c4a7"
       id="circle3266" />
    <path
       d="m 375.43084,370.82539 c 0,0 -50.09,9.49 -56.16,22 -6.07,12.51 -5.31,55.41 -5.31,55.41 0,0 2.27,70.2 -15.18,78.93 l -65.28,45.54 c 0,0 -46.29,-40.6 -57.68,-16.7 -11.39,23.9 54.65,32.64 54.65,32.64 l 73.62,-22 23.53,-15.18 c 0,0 11,-5.31 12.14,-18.22 l 9.87,-78.17 39.47,-11.39 h 63.75 l 8.54,-24.38 c 0,0 15.75,12.62 13.47,24.38 -2.28,11.76 3.8,88 3.8,88 0,0 4.93,17.07 15.18,22 l 59.2,21.25 c 0,0 62.61,6.07 66.79,-21.25 4.18,-27.32 -61.48,3.89 -61.48,3.89 l -47.09,-36.47 c 0,0 -3.79,-15.18 -5.31,-25.81 -1.52,-10.63 -3.79,-56.16 -3.79,-56.16 0,0 14.42,-47.82 -27.33,-56.16 l -53.89,-16.7 z"
       fill="#f7c4a7"
       id="path3268" />
    <path
       d="m 341.85084,380.50539 7.78,51.42 c 0,0 -8,23.91 0,47.44 8,23.53 -9.87,111.21 -9.87,111.21 0,0 93.74,30 151,-4.56 0,0 -42.12,-88.8 -24.29,-118.4 17.83,-29.6 0.3,-41.18 0.3,-41.18 l 2.74,-54.45 -12.9,-3.8 -7.59,53.89 c 0,0 -52.37,36.43 -91.08,4.56 l -8.35,-58.45 z"
       opacity="0.1"
       id="path3270" />
    <path
       d="m 395.99084,441.57539 a 30.75,30.75 0 0 0 -39.8,-11.19 c 12.71,9.55 26.73,12.1 39.8,11.19 z"
       fill="#ffffff"
       opacity="0.07"
       id="path3272" />
    <path
       d="m 417.50084,435.92539 a 30.7,30.7 0 0 1 39.76,-11.19 c -12.68,9.51 -26.69,12.05 -39.76,11.19 z"
       fill="#ffffff"
       opacity="0.07"
       id="path3274" />
    <path
       d="m 341.85084,380.50539 7.78,48.76 c 0,0 -8,23.91 0,47.44 8,23.53 -9.87,111.19 -9.87,111.19 0,0 93.74,30 151,-4.55 0,0 -42.12,-88.8 -24.29,-118.4 17.83,-29.6 0.3,-41.18 0.3,-41.18 l 2.74,-54.46 -12.9,-3.79 -7.59,53.89 c 0,0 -52.37,36.43 -91.08,4.55 l -8.35,-58.44 z"
       opacity="0.1"
       id="path3276" />
    <path
       d="m 341.47084,380.12539 8.16,49.9 c 0,0 -8,23.91 0,47.44 8,23.53 -9.87,111.19 -9.87,111.19 0,0 93.74,30 151,-4.55 0,0 -42.12,-88.81 -24.29,-118.41 17.83,-29.6 0.3,-41.17 0.3,-41.17 l 2.74,-54.46 -12.9,-3.79 -7.59,53.89 c 0,0 -52.37,36.43 -91.08,4.55 l -8.35,-58.44 z"
       fill="#fc6681"
       id="path3278" />
    <path
       d="m 379.99084,607.24539 19.73,-2.67 c 0,0 22.77,-29.22 39.09,-6.83 0,0 6.83,14.42 15.18,17.07 a 112.12,112.12 0 0 0 17.46,3.8 l -33.78,9.49 c 0,0 -14.8,8.73 -30.36,6.45 a 58.87,58.87 0 0 0 -27.32,2.28 z"
       fill="#f7c4a7"
       id="path3280" />
    <path
       d="m 358.17084,483.34539 c 0,0 35.67,5.31 41.74,-4.17"
       opacity="0.1"
       id="path3282" />
    <path
       d="m 425.72084,477.27539 c 0,0 6.83,6.83 34.15,1.9"
       opacity="0.1"
       id="path3284" />
    <path
       d="m 356.26084,371.39539 c 0,0 26.19,3.8 31.12,1.52"
       opacity="0.1"
       id="path3286" />
    <path
       d="m 413.95084,371.39539 c 0,0 26.19,3.8 31.12,1.52"
       opacity="0.1"
       id="path3288" />
    <path
       d="m 382.83084,604.40539 c 0,0 7.22,34 0,35.2 -7.22,1.2 -17.45,-5.6 -17.45,-6.36 0,-0.76 4.55,-22.39 4.55,-22.39 z"
       opacity="0.1"
       id="path3290" />
    <path
       d="m 382.08084,604.40539 c 0,0 7.21,34 0,35.2 -7.21,1.2 -17.46,-5.6 -17.46,-6.36 0,-0.76 4.55,-22.39 4.55,-22.39 z"
       fill="#575988"
       id="path3292" />
    <path
       d="m 346.85084,366.41539 c -3.19,7.39 -4.32,16.11 -0.94,23.41 2.58,5.57 7.63,10.08 8.6,16.14 1.22,7.61 -4.42,15.33 -2.31,22.74 0.8,2.83 2.67,5.23 4.57,7.48 5.78,6.83 13.46,13.45 22.38,12.92 1.42,-13.78 -10.5,-27.15 -6.6,-40.44 1.4,-4.76 4.68,-8.72 6.66,-13.26 3.29,-7.53 2.82,-16.13 1.63,-24.26 -1.73,-11.8 -6.11,-26.26 -17.81,-31.78 -5.37,-2.54 -13,-2.73 -14.91,4.17 -1.05,3.68 1.4,7.14 1.73,10.74 0.41,4.57 -1.23,8.04 -3,12.14 z"
       opacity="0.1"
       id="path3294" />
    <path
       d="m 346.85084,365.28539 c -3.19,7.39 -4.32,16.1 -0.94,23.41 2.58,5.56 7.63,10.08 8.6,16.13 1.22,7.61 -4.42,15.33 -2.31,22.74 0.8,2.83 2.67,5.24 4.57,7.49 5.78,6.82 13.46,13.44 22.38,12.91 1.42,-13.78 -10.5,-27.15 -6.6,-40.44 1.4,-4.76 4.68,-8.72 6.66,-13.26 3.29,-7.53 2.82,-16.13 1.63,-24.26 -1.73,-11.8 -6.11,-26.26 -17.81,-31.78 -5.37,-2.54 -13,-2.72 -14.91,4.17 -1.05,3.68 1.4,7.14 1.73,10.74 0.41,4.57 -1.23,8.04 -3,12.15 z"
       fill="#965d7b"
       id="path3296" />
    <path
       d="m 349.82084,277.66539 c 0,0 55.4,-7.59 56.92,3.79 1.52,11.38 50.48,30 50.48,30 l -12.15,-30 -22.39,-37.19 c 0,0 -41,-3 -42.88,0 -1.88,3 -23.54,12.9 -23.54,12.9 z"
       opacity="0.1"
       id="path3298" />
    <path
       d="m 349.82084,276.90539 c 0,0 55.4,-7.59 56.92,3.79 1.52,11.38 50.48,30 50.48,30 l -12.15,-30 -22.39,-37.19 c 0,0 -41,-3 -42.88,0 -1.88,3 -23.54,12.9 -23.54,12.9 z"
       fill="#965d7b"
       id="path3300" />
    <path
       d="m 446.26084,357.99539 a 27,27 0 0 1 5.56,11.13 c 0.92,3.92 1,8 1.83,11.92 1.86,8.35 7.39,15.37 13.15,21.69 a 23.67,23.67 0 0 0 6.73,5.66 c 2.64,1.3 6,1.57 8.44,0 -2.32,-1.91 -3.58,-4.82 -4.41,-7.7 a 39.45,39.45 0 0 1 -1.54,-12.41 c 0.25,-7 2.3,-14.39 -0.61,-20.77 -1.68,-3.69 -4.81,-6.49 -8,-9 a 43.09,43.09 0 0 0 -7.14,-4.69 c -4.72,-2.35 -10.12,-3.38 -15.33,-3.9 -6.78,-0.69 -0.85,5.51 1.32,8.07 z"
       opacity="0.1"
       id="path3302" />
    <path
       d="m 446.26084,356.86539 a 26.85,26.85 0 0 1 5.56,11.12 c 0.92,3.92 1,8 1.83,11.92 1.86,8.35 7.39,15.37 13.15,21.69 a 23.67,23.67 0 0 0 6.73,5.66 c 2.64,1.3 6,1.57 8.44,0 -2.32,-1.91 -3.58,-4.81 -4.41,-7.7 a 39.45,39.45 0 0 1 -1.54,-12.41 c 0.25,-7 2.3,-14.39 -0.61,-20.77 -1.68,-3.68 -4.81,-6.48 -8,-9 a 42.52,42.52 0 0 0 -7.14,-4.7 c -4.72,-2.35 -10.12,-3.38 -15.33,-3.9 -6.78,-0.68 -0.85,5.52 1.32,8.09 z"
       fill="#965d7b"
       id="path3304" />
  </g>
</svg>
