<?xml version="1.0" encoding="utf-8"?>
<!-- Generator: Adobe Illustrator 24.0.1, SVG Export Plug-In . SVG Version: 6.00 Build 0)  -->
<svg version="1.1" id="Calque_1" xmlns="http://www.w3.org/2000/svg" xmlns:xlink="http://www.w3.org/1999/xlink" x="0px" y="0px"
	 viewBox="0 0 74.1 74.1" style="enable-background:new 0 0 74.1 74.1;" xml:space="preserve">
<style type="text/css">
	.st0{fill:#3D5499;}
	.st1{fill:#6ABFBD;}
	.st2{fill:#FFFFFF;}
</style>
<g>
	<g>
		<g>
			<g>
				<g>
					<g>
						<path class="st0" d="M56.8,8.2l9.2,9.2c10.9,10.9,10.9,28.5,0,39.4L56.8,66c-10.9,10.9-28.5,10.9-39.4,0l-9.2-9.2
							c-10.9-10.9-10.9-28.5,0-39.4l9.2-9.2C28.2-2.7,45.9-2.7,56.8,8.2z"/>
					</g>
				</g>
			</g>
		</g>
		<g>
			<path class="st1" d="M57.6,26.7c0-1.4-1-2.6-2.3-2.8c-0.1,0-0.3-0.1-0.4-0.1h-0.1h-3.1h-7.6H30h-7.6h-3.1h-0.1
				c-0.1,0-0.3,0-0.4,0.1c-1.3,0.3-2.3,1.4-2.3,2.8c0,1.4,1,2.6,2.3,2.8c0.1,0,0.3,0.1,0.4,0.1h0.1h3.1H30c2.3,0,4.1,1.8,4.1,4.1V59
				c0,1.6,1.3,2.9,2.9,2.9c0,0,0,0,0,0c0,0,0,0,0,0c1.6,0,2.9-1.3,2.9-2.9V33.7c0-2.3,1.8-4.1,4.1-4.1h7.6h3.1H55
				c0.1,0,0.3,0,0.4-0.1C56.6,29.3,57.6,28.1,57.6,26.7z"/>
			<g>
				<g>
					<path class="st2" d="M48.6,38.6h-3.2c-1.6,0-2.9,1.3-2.9,2.9s1.3,2.9,2.9,2.9h3.2c1.6,0,2.9-1.3,2.9-2.9S50.2,38.6,48.6,38.6z"
						/>
				</g>
				<g>
					<path class="st2" d="M37.1,61.9c1.6,0,2.9-1.3,2.9-2.9V33.7c0-2.3,1.8-4.1,4.1-4.1h11.4c1.2,0,2.1-1.3,2.1-2.9
						c0-1.2-0.6-2.3-1.3-2.7c-0.3-0.1-0.6-0.2-1-0.2H44.1h-0.4c-5.4,0.1-9.5,4.5-9.6,9.8c0,0,0,0,0,0.1v25.2
						C34.2,60.5,35.5,61.8,37.1,61.9z"/>
				</g>
			</g>
		</g>
	</g>
</g>
</svg>
