<?xml version="1.0" encoding="utf-8"?>
<!-- Generator: Adobe Illustrator 24.0.1, SVG Export Plug-In . SVG Version: 6.00 Build 0)  -->
<svg version="1.1" id="Calque_1" xmlns="http://www.w3.org/2000/svg" xmlns:xlink="http://www.w3.org/1999/xlink" x="0px" y="0px"
	 viewBox="0 0 77.2 58.5" style="enable-background:new 0 0 77.2 58.5;" xml:space="preserve">
<style type="text/css">
	.st0{fill:#3D5499;}
</style>
<g>
	<path class="st0" d="M70.4,13.5H6.7C3,13.5,0,10.5,0,6.7v0C0,3,3,0,6.7,0l63.7,0c3.7,0,6.7,3,6.7,6.7v0
		C77.2,10.5,74.2,13.5,70.4,13.5z"/>
</g>
<g>
	<path class="st0" d="M70.4,36H6.7C3,36,0,33,0,29.3v0c0-3.7,3-6.7,6.7-6.7h63.7c3.7,0,6.7,3,6.7,6.7v0C77.2,33,74.2,36,70.4,36z"/>
</g>
<g>
	<path class="st0" d="M70.4,58.5H6.7c-3.7,0-6.7-3-6.7-6.7v0C0,48.1,3,45,6.7,45h63.7c3.7,0,6.7,3,6.7,6.7v0
		C77.2,55.5,74.2,58.5,70.4,58.5z"/>
</g>
</svg>
