<svg id="Capa_1" enable-background="new 0 0 512 512" height="512" viewBox="0 0 512 512" width="512" xmlns="http://www.w3.org/2000/svg"><g><path d="m217.358 42.488c18.254 7.159 31.636 20.39 37.067 34.671-13.692 6.781-32.501 7.387-50.755.228-14.61-5.73-26.098-15.349-32.888-26.283-2.704-4.354-.355-10.343 4.588-11.699 12.413-3.403 27.378-2.647 41.988 3.083z" fill="#78c2a4"/><path d="m290.422 35.637c-21.326 15.901-34.104 38.004-36.101 58.636 20.344 3.975 45.175-1.963 66.501-17.864 18.308-13.651 30.316-31.872 34.612-49.81 1.158-4.834-2.432-9.648-7.395-9.918-18.417-1.002-39.308 5.306-57.617 18.956z" fill="#95d6a4"/><path d="m256 154.414c-4.492 0-8.127-3.635-8.127-8.127 0-81.262-15.754-135.309-15.921-135.841-1.27-4.302 1.175-8.825 5.476-10.103 4.302-1.286 8.825 1.159 10.103 5.468.683 2.27 16.595 56.659 16.595 140.476.001 4.492-3.634 8.127-8.126 8.127z" fill="#ecbd83"/><path d="m329.143 130.033c-14.932 0-29.284 2.57-42.731 7.287-9.82 3.445-20.117 5.167-30.412 5.167s-20.591-1.722-30.412-5.167c-2.019-.708-4.058-1.368-6.116-1.978-11.653-3.453-23.925.324-36.615.324-76.303 0-102.524 60.439-102.524 141.944s45.636 225.39 110.651 225.39c11.914 0 22.431 1.61 31.346-.5 11.061-2.618 22.366-3.927 33.67-3.927s22.61 1.309 33.67 3.927c8.915 2.11 17.916 5.5 29.83 5.5 8.003 0 17.731 1.679 26.045-2.536 59.226-30.025 121.756-156.381 121.756-227.854 0-81.505-61.855-147.577-138.158-147.577z" fill="#b3e59f"/><path d="m303.615 495.136c-4.909-1.244-8.543-2.163-10.201-2.556-12.233-2.895-24.821-4.364-37.414-4.364-.669 0-1.338.004-2.007.013-26.057.331-51.176-10.772-66.754-31.661-38.729-51.932-69.397-128.89-69.397-178.958 0-67.951 43.116-125.116 101.631-142.268-11.646-3.448-23.934-5.31-36.615-5.31-76.303 0-138.158 66.073-138.158 147.578s81.269 234.39 146.284 234.39c11.914 0 22.431-1.493 31.346-3.603 3.688-.873 7.409-1.542 11.142-2.12 1.015-.205 15.225-1.807 22.528-1.807 11.305 0 22.61 1.309 33.67 3.927 8.915 2.11 19.432 3.603 31.346 3.603 7.991 0 16.228-2.333 24.529-6.536-11.211-2.644-25.19-6.086-41.93-10.328z" fill="#95d6a4"/></g></svg>