<?xml version="1.0" encoding="utf-8"?>
<!-- Generator: Adobe Illustrator 24.0.1, SVG Export Plug-In . SVG Version: 6.00 Build 0)  -->
<svg version="1.1" id="Calque_1" xmlns="http://www.w3.org/2000/svg" xmlns:xlink="http://www.w3.org/1999/xlink" x="0px" y="0px"
	 viewBox="0 0 512 512" style="enable-background:new 0 0 512 512;" xml:space="preserve">
<style type="text/css">
	.st0{fill:#3D5499;}
</style>
<g>
	<path class="st0" d="M230,212.7l-80-80c-6.3-6.3-16.4-6.3-22.6,0s-6.3,16.4,0,22.6l52.7,52.7H16c-8.8,0-16,7.2-16,16s7.2,16,16,16
		h164l-52.7,52.7c-6.3,6.3-6.3,16.4,0,22.6c3.1,3.1,7.2,4.7,11.3,4.7c4.1,0,8.2-1.6,11.3-4.7l80-80
		C236.2,229.1,236.2,218.9,230,212.7z"/>
	<path class="st0" d="M471.5,0.2c-0.7-0.1-1.4-0.2-2.1-0.2h-240c-32.4,0-58.7,26.3-58.7,58.7v32c0,8.8,7.2,16,16,16s16-7.2,16-16
		v-32c0-14.7,12-26.7,26.7-26.7H366l-38.5,12.8c-17.3,6-28.9,22.3-28.9,40.5V416h-69.3c-14.7,0-26.7-12-26.7-26.7v-32
		c0-8.8-7.2-16-16-16s-16,7.2-16,16v32c0,32.4,26.3,58.7,58.7,58.7h69.3v21.3c0,23.5,19.1,42.7,42.7,42.7c4.6,0,8.9-0.6,13.6-2.1
		l128.2-42.8c17.3-6,28.9-22.3,28.9-40.5v-384C512,19.8,493.7,1.5,471.5,0.2z M480,426.7c0,4.5-3.1,8.8-7.2,10.2l-127.6,42.6
		c-6.6,2.1-14.5-2.8-14.5-10.1v-384c0-4.5,3-8.8,7.2-10.2l127.6-42.6c1.3-0.4,2.4-0.6,3.8-0.6c5.9,0,10.7,4.8,10.7,10.7V426.7z"/>
</g>
</svg>
