<svg id="Flat" height="512" viewBox="0 0 512 512" width="512" xmlns="http://www.w3.org/2000/svg"><path d="m320 24h-128a64 64 0 0 0 -64 64v176h256v-176a64 64 0 0 0 -64-64zm16 96a80 80 0 1 1 -160 0v-16a31.973 31.973 0 0 1 32-32h96a31.973 31.973 0 0 1 32 32z" fill="#757c80"/><g fill="#fc9495"><path d="m179.67 144h-51.67v-48h49.01a32 32 0 0 0 -1.01 8v16a79.668 79.668 0 0 0 3.67 24z"/><path d="m384 96v48h-51.67a79.668 79.668 0 0 0 3.67-24v-16a32 32 0 0 0 -1.01-8z"/><path d="m432 343.2a175.64 175.64 0 0 1 -65.3 137.63 32.1 32.1 0 0 1 -20.2 7.17h-181a32.058 32.058 0 0 1 -20.172-7.149 176 176 0 0 1 107.942-312.83c97.011-1.475 178.297 78.158 178.73 175.179z"/></g><circle cx="256" cy="344" fill="#d88080" r="112"/><path d="m244.8 361.6-23.467-17.6 23.467-17.6a8 8 0 0 0 -9.6-12.8l-19.2 14.4v-8a8 8 0 0 0 -16 0v48a8 8 0 0 0 16 0v-8l19.2 14.4a8 8 0 0 0 9.6-12.8z" fill="#606669"/><path d="m312 376h-40a8 8 0 0 1 -8-8v-48a8 8 0 0 1 8-8h24a8 8 0 0 1 0 16h-16v32h24v-16a8 8 0 0 1 16 0v24a8 8 0 0 1 -8 8z" fill="#606669"/></svg>