<?xml version="1.0" encoding="iso-8859-1"?>
<!-- Generator: Adobe Illustrator 19.0.0, SVG Export Plug-In . SVG Version: 6.00 Build 0)  -->
<svg version="1.1" id="Capa_1" xmlns="http://www.w3.org/2000/svg" xmlns:xlink="http://www.w3.org/1999/xlink" x="0px" y="0px"
	 viewBox="0 0 283.895 283.895" style="enable-background:new 0 0 283.895 283.895;" xml:space="preserve">
<path style="fill:#71C7E0;" d="M171.676,118.25c0-12.267-2.889-26.137-14.498-45.958C146.475,54.017,122.419,22.745,99.976,0
	C77.535,22.746,53.48,54.017,42.777,72.292c-8.963,15.296-14.92,36.032-14.92,45.958c0,39.714,32.193,71.91,71.91,71.91
	C139.48,190.16,171.676,157.965,171.676,118.25z M138.339,167.291c-7.93,6.803-18.301,7.723-23.162,2.055
	c-0.178-0.207-0.322-0.43-0.48-0.646c-4.744,1.357-9.75,2.1-14.93,2.1c-29.936,0-54.201-24.266-54.201-54.2
	c0-6.916,3.84-20.785,9.754-31.949c-1.961-6.825,0.289-16.989,6.484-26.379c7.152-10.84,17.32-17.248,24.848-16.364
	c2.412-2.786,4.855-5.532,7.305-8.18c1.445-1.563,3.049-4.064,5.996-4.064c2.602,0,4.785,2.812,6.102,4.237
	c14.996,16.237,29.887,35.939,36.985,48.059c8.75,14.94,10.929,25.395,10.929,34.641c0,11.011-3.293,21.249-8.935,29.8
	C148.23,152.228,145.539,161.117,138.339,167.291z"/>
<path style="fill:#48A3C9;" d="M120.73,146.763c7.93-6.803,18.299-7.722,23.165-2.055c0.448,0.523,0.813,1.096,1.139,1.688
	c5.642-8.551,8.935-18.789,8.935-29.8c0-9.246-2.179-19.701-10.929-34.641c-7.098-12.12-21.989-31.822-36.985-48.059
	c-1.316-1.425-3.5-4.237-6.102-4.237c-2.947,0-4.551,2.501-5.996,4.064c-2.449,2.647-4.893,5.394-7.305,8.18
	c1.578,0.186,3.045,0.684,4.338,1.538c7.469,4.925,6.504,19.55-2.148,32.665C80.188,89.22,67.123,95.859,59.656,90.933
	c-2.119-1.399-3.559-3.581-4.336-6.287c-5.914,11.165-9.754,25.034-9.754,31.949c0,29.935,24.266,54.201,54.201,54.201
	c5.18,0,10.186-0.742,14.93-2.101C110.521,162.935,113.087,153.319,120.73,146.763z"/>
<path style="fill:#B0E8FF;" d="M143.894,144.711c-4.866-5.668-15.235-4.75-23.165,2.053c-7.643,6.557-10.209,16.172-6.033,21.937
	c0.158,0.218,0.303,0.438,0.48,0.646c4.861,5.67,15.232,4.75,23.162-2.053c7.2-6.175,9.891-15.063,6.694-20.894
	C144.709,145.804,144.343,145.233,143.894,144.711z"/>
<path style="fill:#FFFFFF;" d="M59.655,90.936c7.467,4.926,20.531-1.713,29.186-14.827c8.652-13.115,9.617-27.739,2.148-32.665
	c-1.293-0.854-2.76-1.353-4.338-1.538c-7.527-0.884-17.695,5.523-24.848,16.364c-6.195,9.391-8.445,19.555-6.484,26.379
	C56.097,87.355,57.536,89.537,59.655,90.936z"/>
<path style="fill:#71C7E0;" d="M245.291,189.571c-8.268-15.063-27.071-40.97-44.76-59.923c-18.713,17.941-38.93,42.76-48.023,57.342
	c-7.613,12.202-12.915,28.887-13.137,36.938c-0.896,32.211,24.487,59.049,56.698,59.944s59.049-24.489,59.945-56.698
	C256.291,217.224,254.26,205.909,245.291,189.571z M241.689,225.433c-0.248,8.931-3.15,17.16-7.918,23.969
	c2.461,4.801,0.076,11.947-5.9,16.793c-6.586,5.338-15.018,5.85-18.832,1.143c-0.139-0.17-0.252-0.354-0.375-0.533
	c-3.879,0.994-7.955,1.482-12.158,1.365c-24.276-0.676-43.412-20.904-42.735-45.183c0.155-5.614,3.592-16.794,8.647-25.72
	c-1.432-5.578,0.605-13.75,5.84-21.221c6.043-8.629,14.426-13.584,20.513-12.701c2.021-2.209,4.067-4.385,6.119-6.479
	c1.207-1.236,2.563-3.229,4.952-3.162c2.111,0.059,3.818,2.389,4.854,3.574c11.797,13.508,23.428,29.822,28.912,39.813
	C240.367,209.406,241.898,217.935,241.689,225.433z"/>
<path style="fill:#48A3C9;" d="M204.695,157.279c-1.035-1.186-2.742-3.516-4.854-3.574c-2.389-0.066-3.745,1.926-4.952,3.162
	c-2.052,2.096-4.099,4.271-6.119,6.479c1.276,0.187,2.461,0.612,3.492,1.336c5.946,4.162,4.834,16.002-2.479,26.442
	s-18.063,15.53-24.006,11.367c-1.69-1.185-2.791-3.006-3.359-5.224c-5.057,8.925-8.491,20.104-8.647,25.719
	c-0.676,24.277,18.459,44.507,42.735,45.184c4.203,0.116,8.279-0.373,12.158-1.367c-3.258-4.77-0.959-12.51,5.389-17.654
	c6.585-5.338,15.015-5.85,18.832-1.143c0.353,0.436,0.636,0.907,0.888,1.396c4.768-6.81,7.67-15.038,7.918-23.97
	c0.209-7.498-1.322-16.026-8.082-28.342C228.123,187.101,216.492,170.787,204.695,157.279z"/>
<path style="fill:#B0E8FF;" d="M214.052,249.148c-6.349,5.145-8.646,12.886-5.39,17.654c0.123,0.18,0.236,0.365,0.375,0.535
	c3.814,4.707,12.246,4.194,18.832-1.144c5.978-4.845,8.361-11.992,5.9-16.793c-0.252-0.488-0.535-0.961-0.888-1.396
	C229.066,243.299,220.636,243.81,214.052,249.148z"/>
<path style="fill:#FFFFFF;" d="M165.777,202.492c5.943,4.163,16.691-0.927,24.006-11.367c7.313-10.441,8.426-22.281,2.479-26.443
	c-1.031-0.723-2.216-1.148-3.492-1.334c-6.087-0.885-14.47,4.07-20.513,12.699c-5.233,7.472-7.271,15.644-5.84,21.223
	C162.986,199.486,164.086,201.306,165.777,202.492z"/>
<g>
</g>
<g>
</g>
<g>
</g>
<g>
</g>
<g>
</g>
<g>
</g>
<g>
</g>
<g>
</g>
<g>
</g>
<g>
</g>
<g>
</g>
<g>
</g>
<g>
</g>
<g>
</g>
<g>
</g>
</svg>
